<?xml version="1.0" encoding="UTF-8"?>
<svg version="1.1" xmlns="http://www.w3.org/2000/svg" width="500" height="500">
<path d="M0 0 C1.05812635 -0.00397441 2.1162527 -0.00794881 3.20644349 -0.01204365 C6.74561045 -0.02165432 10.28437647 -0.00985578 13.8235321 0.00190735 C16.3631607 -0.00052094 18.90278833 -0.00424062 21.44241333 -0.00915527 C27.61913645 -0.01758412 33.79571119 -0.01205711 39.97242389 0.00010767 C47.16362054 0.01374231 54.35478945 0.01208866 61.54599573 0.00997434 C74.37225585 0.00678686 87.19846035 0.01844053 100.02470398 0.03804016 C112.47686962 0.0570632 124.92897016 0.06412224 137.38114929 0.05854797 C150.94178047 0.05249547 164.50238303 0.05265601 178.06301183 0.06403381 C179.50762665 0.06524111 180.95224148 0.0664471 182.39685631 0.06765175 C183.46304747 0.06855706 183.46304747 0.06855706 184.55077786 0.06948065 C189.5668377 0.07336473 194.5828869 0.07296437 199.59894753 0.0710659 C206.34175687 0.06872717 213.08447007 0.07724335 219.82726479 0.0931263 C222.3081528 0.09738483 224.78904931 0.09820925 227.26993942 0.0954361 C230.64302523 0.09223639 234.01585641 0.10123988 237.38891602 0.11352539 C238.38218015 0.10974607 239.37544429 0.10596674 240.39880735 0.10207289 C241.29718861 0.10790509 242.19556987 0.11373728 243.12117481 0.11974621 C243.90036362 0.12061299 244.67955244 0.12147976 245.48235303 0.12237281 C247.3769989 0.3742218 247.3769989 0.3742218 249.3769989 2.3742218 C249.62654656 4.30141979 249.62654656 4.30141979 249.62588787 6.70927525 C249.63278606 8.0832978 249.63278606 8.0832978 249.63982362 9.48507839 C249.63210827 11.00445937 249.63210827 11.00445937 249.62423706 12.55453491 C249.62665148 13.62542891 249.62906589 14.69632292 249.63155347 15.79966825 C249.63721911 19.41190119 249.62850576 23.02395952 249.61991882 26.63618469 C249.62099099 29.21610563 249.62292869 31.79602634 249.62567139 34.37594604 C249.63072055 40.66996085 249.62506292 46.96392324 249.61582109 53.25793154 C249.60545388 60.58063342 249.60550682 67.90332387 249.60599367 75.22603171 C249.60649464 88.28691411 249.59732293 101.34777206 249.58280945 114.40864563 C249.56871843 127.09582464 249.56163877 139.78298212 249.56230164 152.47016907 C249.56234159 153.25167106 249.56238155 154.03317305 249.56242272 154.83835692 C249.56246307 155.61847927 249.56250342 156.39860161 249.562545 157.20236403 C249.56323406 171.62753262 249.55734963 186.05269202 249.54839179 200.47785764 C249.54536987 205.58800222 249.54431157 210.69814511 249.54385948 215.80829048 C249.54310788 222.6790448 249.53678326 229.54977586 249.52669334 236.42052269 C249.52376006 238.95020534 249.52254464 241.47989061 249.52312088 244.00957489 C249.52360775 247.44670537 249.51799377 250.88377086 249.51071167 254.32089233 C249.51226027 255.33604371 249.51380887 256.35119508 249.5154044 257.39710861 C249.51217996 258.31051591 249.50895551 259.2239232 249.50563335 260.1650095 C249.50492893 260.95943945 249.5042245 261.75386939 249.50349873 262.57237297 C249.3769989 264.3742218 249.3769989 264.3742218 248.3769989 265.3742218 C246.98290176 265.47340174 245.5838162 265.50344671 244.18619728 265.50564957 C242.82223648 265.51141128 242.82223648 265.51141128 241.43072093 265.5172894 C239.91485347 265.51598968 239.91485347 265.51598968 238.36836243 265.5146637 C237.30381753 265.51763482 236.23927264 265.52060594 235.14246881 265.5236671 C231.54567028 265.53239633 227.94890487 265.53386589 224.35209656 265.53535461 C221.78542 265.53997978 219.21874414 265.54500402 216.65206909 265.55039978 C209.65835001 265.56400254 202.66463665 265.57001085 195.67090654 265.57441044 C191.30708093 265.57716961 186.94325755 265.58140636 182.57943344 265.58591461 C170.50621746 265.59810985 158.43300327 265.60840864 146.35978127 265.6117897 C145.58652454 265.61200927 144.81326781 265.61222884 144.01657905 265.61245506 C143.24143211 265.61267333 142.46628516 265.61289161 141.66764891 265.6131165 C140.09680724 265.61355997 138.52596557 265.61400654 136.9551239 265.61445618 C136.17592588 265.61467761 135.39672786 265.61489904 134.59391777 265.61512718 C121.96362197 265.61907651 109.33338382 265.63653351 96.70311029 265.6598157 C83.74746967 265.68350562 70.791858 265.69599048 57.83619535 265.69715762 C50.55735155 265.69807572 43.27858284 265.70386174 35.99975967 265.72197723 C29.15606482 265.73894928 22.312515 265.74064853 15.46880531 265.73183823 C12.9512462 265.731064 10.43367962 265.73546085 7.9161396 265.74529648 C4.490454 265.75789941 1.06528372 265.75220279 -2.36039734 265.74171448 C-3.3665142 265.74977088 -4.37263106 265.75782729 -5.40923631 265.76612782 C-6.323759 265.75953798 -7.2382817 265.75294814 -8.1805172 265.7461586 C-8.97169201 265.74675569 -9.76286683 265.74735278 -10.57801664 265.74796796 C-13.18318989 265.27184038 -14.06461902 264.49091804 -15.6230011 262.3742218 C-15.90921011 259.69155979 -16.01048413 257.24298089 -15.97703552 254.56059265 C-15.97889323 253.75547387 -15.98075094 252.95035508 -15.98266494 252.12083876 C-15.98527294 249.41130428 -15.96638873 246.70233942 -15.94770813 243.99287415 C-15.94522496 242.0522575 -15.94407769 240.11163874 -15.94416809 238.17102051 C-15.94145527 233.9771296 -15.92918445 229.78341118 -15.90962601 225.58956528 C-15.87849669 218.90528503 -15.86830674 212.22107036 -15.86076355 205.53672791 C-15.84623394 194.89953243 -15.81731511 184.2624305 -15.78251636 173.62528384 C-15.72114106 154.75499676 -15.68240051 135.8846613 -15.65092361 117.01430285 C-15.63936558 110.42697158 -15.62123337 103.83970352 -15.59754598 97.25240529 C-15.52007588 74.85984484 -15.62410124 52.48048377 -16.06001282 30.09150696 C-16.07966418 29.02358374 -16.09931553 27.95566053 -16.11956239 26.85537601 C-16.17641699 23.85017348 -16.23999629 20.84520154 -16.30632019 17.8401947 C-16.32306313 16.95157313 -16.33980608 16.06295155 -16.35705638 15.14740205 C-16.45503121 11.10944042 -16.63147824 7.31460035 -17.6230011 3.3742218 C-11.63151607 0.25472294 -6.68993882 -0.05023214 0 0 Z M24.3769989 42.3742218 C24.3536726 66.08680191 24.33602105 89.79938031 24.32518673 113.51196957 C24.3200232 124.5213147 24.31297942 135.53065272 24.30155945 146.53999329 C24.29161434 156.13204073 24.28514589 165.72408301 24.28291041 175.31613547 C24.281603 180.39837472 24.27851529 185.48059924 24.27126884 190.56283379 C24.26451136 195.34057852 24.26238138 200.11830235 24.26389122 204.89605141 C24.26361477 206.65493254 24.26160804 208.41381433 24.25779343 210.17269135 C24.25286042 212.5633349 24.25399914 214.95389827 24.25674438 217.34454346 C24.25383154 218.04978321 24.2509187 218.75502295 24.24791759 219.4816336 C23.98459689 222.70695522 23.98459689 222.70695522 25.3769989 225.3742218 C26.84216194 225.47203405 28.31201712 225.50053928 29.78044128 225.50120544 C30.7311702 225.50402527 31.68189911 225.50684509 32.66143799 225.50975037 C33.71290512 225.50772614 34.76437225 225.5057019 35.84770203 225.50361633 C37.49874184 225.50624481 37.49874184 225.50624481 39.18313599 225.50892639 C42.84152274 225.51334748 46.49986161 225.51040601 50.1582489 225.5070343 C52.68791208 225.50770727 55.2175752 225.50867723 57.74723816 225.50993347 C63.05693739 225.51141079 68.36661927 225.50934938 73.67631531 225.5045929 C79.82305848 225.49915031 85.9697685 225.50091298 92.11651087 225.5064193 C98.01917454 225.5114962 103.92182786 225.51096886 109.82449341 225.50803757 C112.34122726 225.50736804 114.85796195 225.5081976 117.37469482 225.51051712 C120.88525165 225.51304213 124.3957438 225.50920518 127.90629578 225.50361633 C129.48349648 225.50665268 129.48349648 225.50665268 131.09255981 225.50975037 C132.04328873 225.50693054 132.99401764 225.50411072 133.97355652 225.50120544 C134.80463676 225.50082842 135.63571701 225.50045139 136.49198151 225.50006294 C138.38953177 225.58116751 138.38953177 225.58116751 139.3769989 224.3742218 C139.47662629 222.67604472 139.5078037 220.97375512 139.5098114 219.2726593 C139.51110046 218.22465149 139.51238953 217.17664368 139.51371765 216.09687805 C139.50985046 214.99215149 139.50598328 213.88742493 139.5019989 212.7492218 C139.50586609 211.66769836 139.50973328 210.58617493 139.51371765 209.47187805 C139.51242859 208.41613586 139.51113953 207.36039368 139.5098114 206.2726593 C139.50811951 204.82898987 139.50811951 204.82898987 139.50639343 203.3561554 C139.36122738 200.01076268 138.85055408 196.68910809 138.3769989 193.3742218 C99.2719989 192.8792218 99.2719989 192.8792218 59.3769989 192.3742218 C59.3769989 159.7042218 59.3769989 127.0342218 59.3769989 93.3742218 C65.00099685 96.74862057 65.00099685 96.74862057 67.65434265 99.6398468 C68.24304138 100.27487122 68.83174011 100.90989563 69.4382782 101.56416321 C70.05743103 102.24398254 70.67658386 102.92380188 71.3144989 103.6242218 C72.6529353 105.07483977 73.99147947 106.52535831 75.3301239 107.9757843 C76.00494812 108.71087219 76.67977234 109.44596008 77.37504578 110.20332336 C79.25287324 112.23962115 81.14614534 114.25964257 83.0488739 116.2726593 C89.2773543 122.86863206 95.31986535 129.56727071 101.16825867 136.50288391 C104.78279102 140.7612261 108.59894298 144.73883124 112.6348114 148.60469055 C114.3769989 150.3742218 114.3769989 150.3742218 116.3769989 153.3742218 C119.75291175 152.24891752 120.66146689 151.21368563 122.9394989 148.5617218 C123.83862 147.53111633 123.83862 147.53111633 124.75590515 146.47969055 C126.27348639 144.50866335 127.35602848 142.63457919 128.3769989 140.3742218 C129.0369989 140.3742218 129.6969989 140.3742218 130.3769989 140.3742218 C131.7463377 138.81829179 133.04644547 137.20124839 134.3144989 135.5617218 C138.62391883 130.1433632 143.28677937 125.3699461 148.28715515 120.58906555 C150.60576039 118.63930351 150.60576039 118.63930351 150.3769989 116.3742218 C151.0369989 116.3742218 151.6969989 116.3742218 152.3769989 116.3742218 C152.3769989 115.7142218 152.3769989 115.0542218 152.3769989 114.3742218 C153.0369989 114.3742218 153.6969989 114.3742218 154.3769989 114.3742218 C155.81166907 112.99464764 155.81166907 112.99464764 157.3144989 111.1242218 C160.54813627 107.33916417 163.80498617 103.58184986 167.1269989 99.8742218 C167.83457336 99.06356262 167.83457336 99.06356262 168.55644226 98.23652649 C169.76822538 96.89082198 171.06764646 95.62519547 172.3769989 94.3742218 C173.3669989 94.3742218 174.3569989 94.3742218 175.3769989 94.3742218 C175.7069989 137.6042218 176.0369989 180.8342218 176.3769989 225.3742218 C187.2669989 225.3742218 198.1569989 225.3742218 209.3769989 225.3742218 C210.85148902 222.42524156 210.49058645 219.45493726 210.45928955 216.22428894 C210.45444586 215.10691587 210.45444586 215.10691587 210.44950432 213.96696961 C210.43739071 211.45797529 210.41802595 208.94908837 210.39872742 206.44013977 C210.3885887 204.64676652 210.37889459 202.85339071 210.36961365 201.06001282 C210.34309183 196.18008645 210.3103207 191.30021936 210.27646375 186.42033911 C210.24216106 181.32475702 210.21355546 176.2291431 210.18435669 171.13352966 C210.12816414 161.4791758 210.06681597 151.8248618 210.00363535 142.17055142 C209.93197012 131.18162023 209.86602221 120.19265708 209.80056489 109.20368743 C209.66575746 86.59382409 209.52373654 63.98401063 209.3769989 41.3742218 C202.57430971 40.49757789 195.99016199 40.19089648 189.1269989 40.1867218 C187.51438171 40.16835266 187.51438171 40.16835266 185.8691864 40.14961243 C184.31844421 40.14671204 184.31844421 40.14671204 182.7363739 40.14375305 C181.80277039 40.13964417 180.86916687 40.13553528 179.90727234 40.13130188 C176.08681878 40.49808606 174.06163351 41.61367583 171.5098114 44.44844055 C170.84723328 45.31082336 170.18465515 46.17320618 169.5019989 47.0617218 C165.62266502 51.94300284 161.5305284 56.52719259 157.2519989 61.0617218 C153.14339091 65.41971337 149.07093631 69.78133225 145.1738739 74.33125305 C143.64810921 76.06598117 142.09467945 77.76070549 140.5176239 79.44844055 C139.75711731 80.26502136 139.75711731 80.26502136 138.98124695 81.09809875 C137.96863014 82.18255283 136.95197667 83.26325438 135.93095398 84.33979797 C133.21105526 86.92350869 133.21105526 86.92350869 132.3769989 90.3742218 C131.7169989 90.3742218 131.0569989 90.3742218 130.3769989 90.3742218 C130.3769989 91.0342218 130.3769989 91.6942218 130.3769989 92.3742218 C129.7169989 92.3742218 129.0569989 92.3742218 128.3769989 92.3742218 C126.67414095 94.09585579 126.67414095 94.09585579 124.9394989 96.2492218 C122.79299006 98.83615902 121.20923328 100.48606555 118.3769989 102.3742218 C114.36101717 102.16721243 112.37604718 99.71208159 109.6894989 96.9367218 C108.90188171 96.13363586 108.11426453 95.33054993 107.30278015 94.50312805 C105.3769989 92.3742218 105.3769989 92.3742218 104.3769989 90.3742218 C103.7169989 90.3742218 103.0569989 90.3742218 102.3769989 90.3742218 C102.13336609 89.80187805 101.88973328 89.2295343 101.63871765 88.6398468 C100.15182592 85.96988642 98.39615982 84.23593173 96.1894989 82.1242218 C92.69064097 78.70348829 89.39602346 75.20891712 86.2129364 71.49531555 C83.27205571 68.09765978 80.22758347 64.79367542 77.1973114 61.4757843 C75.3769989 59.3742218 75.3769989 59.3742218 74.3769989 57.3742218 C73.7169989 57.3742218 73.0569989 57.3742218 72.3769989 57.3742218 C72.15914734 56.84183899 71.94129578 56.30945618 71.71684265 55.76094055 C69.89121191 52.50886947 67.45681505 49.90752374 64.9394989 47.1867218 C64.44901062 46.64080383 63.95852234 46.09488586 63.45317078 45.53242493 C60.33205487 42.13331489 58.45661507 40.48899516 53.74491882 40.22895813 C50.35134301 40.20439953 46.95817053 40.18856319 43.5644989 40.1867218 C41.8000946 40.16835266 41.8000946 40.16835266 40.00004578 40.14961243 C38.85987 40.14767883 37.71969421 40.14574524 36.54496765 40.14375305 C34.98685364 40.13758972 34.98685364 40.13758972 33.39726257 40.13130188 C30.12145316 40.39477536 27.46728986 41.29164627 24.3769989 42.3742218 Z " fill="#F8F8F7" transform="translate(132.6230010986328,116.62577819824219)"/>
<path d="M0 0 C1 2 1 2 0.1875 5.0625 C-1 8 -1 8 -3 9 C-3.99 8.67 -4.98 8.34 -6 8 C-6.33 6.35 -6.66 4.7 -7 3 C-4.69 2.01 -2.38 1.02 0 0 Z " fill="#E2DDDB" transform="translate(122,117)"/>
</svg>
