<?xml version="1.0" encoding="UTF-8"?>
<svg version="1.1" xmlns="http://www.w3.org/2000/svg" width="500" height="500">
<path d="M0 0 C3.8026029 2.0050088 5.61790841 3.42686262 8 7 C8.37109375 9.26953125 8.37109375 9.26953125 8.4375 11.8125 C8.47746094 12.64394531 8.51742187 13.47539063 8.55859375 14.33203125 C8 17 8 17 5.4296875 19.80078125 C3.79838869 21.60678953 3.05260898 22.53491363 2.77661133 24.97485352 C2.95439545 27.14925143 3.2749753 29.23297031 3.6875 31.375 C3.86442383 32.47908203 3.86442383 32.47908203 4.04492188 33.60546875 C4.33754273 35.40801322 4.66526539 37.2047991 5 39 C6.16144531 38.97421875 7.32289063 38.9484375 8.51953125 38.921875 C12.6848979 38.92554412 16.59062992 39.45841565 20.6875 40.25 C21.94949219 40.48203125 23.21148437 40.7140625 24.51171875 40.953125 C28.29919049 42.08979065 30.33288843 43.08315889 33 46 C33.51171875 48.953125 33.51171875 48.953125 33.6875 52.25 C34.57424198 56.89348147 34.57424198 56.89348147 37.69335938 60.25439453 C42.19663653 62.63018095 46.99686394 64.30231231 51.75732422 66.08496094 C60.32321043 69.57994695 67.38854985 75.94097825 74.0390625 82.21484375 C75.88027799 84.05322784 75.88027799 84.05322784 78 85 C78 85.66 78 86.32 78 87 C78.66 87 79.32 87 80 87 C80 87.66 80 88.32 80 89 C80.66 89 81.32 89 82 89 C83.69213615 90.96467489 85.26008404 92.92926141 86.8125 95 C87.26971436 95.59288818 87.72692871 96.18577637 88.19799805 96.79663086 C90.59544828 99.94733258 92.57791591 102.99169604 94.3125 106.5625 C96.5450336 110.42090046 99.3855495 111.03868435 103.5625 112.25 C104.67753906 112.50265625 105.79257812 112.7553125 106.94140625 113.015625 C110.41539818 114.13369137 111.77100925 115.14053748 114 118 C121.06938192 132.05656173 126.94010594 153.3320806 124 169 C122.83551205 171.98400036 121.85399061 173.58191731 118.94140625 175.0078125 C115.55623988 176.68649927 112.71563916 178.12087984 111.30712891 181.81933594 C110.53590163 184.84680577 109.99344788 187.89693892 109.44628906 190.97143555 C106.41187653 207.48486932 94.93648429 220.31398782 81.4765625 229.7734375 C43.96433894 254.38747531 -4.40050099 256.77581392 -47.37890625 247.93359375 C-67.64647673 243.42417387 -86.15966254 234.78933973 -101 220 C-101.70898438 219.31421875 -102.41796875 218.6284375 -103.1484375 217.921875 C-112.41024034 208.34069965 -120 192.70965973 -120 179 C-121.051875 178.6596875 -121.051875 178.6596875 -122.125 178.3125 C-126.41335785 176.35477142 -130.02322316 173.9279333 -132.19140625 169.6484375 C-133.59412058 165.05403984 -132.64064454 160.69195861 -132 156 C-131.87496094 155.08089844 -131.74992187 154.16179687 -131.62109375 153.21484375 C-131.14956317 150.12653083 -130.59422165 147.06718003 -130 144 C-129.87254395 143.34161133 -129.74508789 142.68322266 -129.61376953 142.00488281 C-125.60321728 121.85475557 -125.60321728 121.85475557 -120 115 C-116.45070592 112.9278386 -112.96938134 111.95912271 -109 111 C-104.44635419 109.66706059 -102.97961653 108.02074964 -100.625 103.9375 C-97.46392228 98.69439954 -94.19940957 93.48749571 -90 89 C-89.34 89 -88.68 89 -88 89 C-88 88.34 -88 87.68 -88 87 C-85.53481381 84.45218187 -82.72522697 82.263625 -80 80 C-78.84371094 79.01386719 -78.84371094 79.01386719 -77.6640625 78.0078125 C-68.44834919 70.34296357 -58.79784069 64.98570331 -47.51953125 60.9453125 C-45.09646033 60.23434308 -45.09646033 60.23434308 -44 59 C-43.70412744 57.25405896 -43.43826175 55.50298866 -43.1875 53.75 C-42.37710721 49.15578792 -41.60475117 46.19277961 -38 43 C-34.2661388 41.2471053 -30.69310146 40.48376578 -26.625 39.875 C-25.00464844 39.62363281 -25.00464844 39.62363281 -23.3515625 39.3671875 C-19.87411841 38.98620878 -16.49539254 38.93805633 -13 39 C-12.52648322 36.46050238 -12.09613284 33.92504754 -11.6875 31.375 C-11.48157227 30.30572266 -11.48157227 30.30572266 -11.27148438 29.21484375 C-10.59844785 25.08873105 -10.59844785 25.08873105 -12.05078125 21.31347656 C-13.35236067 19.86221551 -14.67566315 18.43052422 -16 17 C-17.05516971 12.92828628 -16.98509604 8.79997328 -14.9375 5.05859375 C-10.59190871 -0.30872883 -6.5696987 -0.81707177 0 0 Z M-35 91 C-36.175625 91.4228125 -37.35125 91.845625 -38.5625 92.28125 C-46.34953189 95.14193185 -52.79723838 98.39454135 -59 104 C-59.81984375 104.6909375 -60.6396875 105.381875 -61.484375 106.09375 C-78.33217764 120.59307106 -88.71709384 140.81917097 -91 163 C-91.83721636 175.38198934 -89.99918976 185.2741129 -82 195 C-75.51943553 202.14728921 -67.68257769 206.1639685 -59 210 C-58.11699219 210.39058594 -57.23398438 210.78117187 -56.32421875 211.18359375 C-36.4910245 219.11070249 -15.02820782 219.39195946 6 219 C7.03906494 218.98114746 7.03906494 218.98114746 8.09912109 218.96191406 C28.11667601 218.46109191 47.77550802 213.22923911 65 203 C65 202.34 65 201.68 65 201 C65.74121094 200.7525 66.48242188 200.505 67.24609375 200.25 C73.66960558 197.33436342 77.84569245 191.07242736 80.4375 184.6875 C86.04781938 169.06414424 82.22822423 150.98925964 76 136 C74.14515643 132.24150118 72.13579985 128.60523014 70 125 C69.22849609 123.60587891 69.22849609 123.60587891 68.44140625 122.18359375 C67.96574219 121.46300781 67.49007812 120.74242187 67 120 C66.34 120 65.68 120 65 120 C64.73832031 119.25105469 64.47664062 118.50210938 64.20703125 117.73046875 C58.80132908 105.50203569 42.14658228 96.13999547 30.14453125 91.40234375 C23.60479425 89.04816291 16.86100944 87.98883728 10 87 C9.00097656 86.81566406 8.00195312 86.63132812 6.97265625 86.44140625 C-6.68282698 84.41371951 -22.18594278 85.90723367 -35 91 Z " fill="#232A2D" transform="translate(254,112)"/>
<path d="M0 0 C6.66191242 3.94779995 8.66162044 9.98486133 11 17 C11.94636814 26.46368137 9.93838952 33.3370643 4.3125 40.9375 C1.35431444 44.14220102 -1.47846315 45.33245926 -5.765625 45.97265625 C-10.29043611 46.02802981 -13.42970945 44.47259967 -16.6953125 41.41015625 C-22.28919012 35.23527201 -23.88904715 29.25982313 -24 21 C-23.24309183 13.71926431 -20.7976989 6.66122578 -15.4375 1.5625 C-10.33400215 -1.70897298 -5.73830866 -1.27120098 0 0 Z " fill="#262C2F" transform="translate(213,244)"/>
<path d="M0 0 C4.89704959 3.3001856 8.28300161 8.23283911 9.875 13.9375 C11.49460169 23.91083673 10.71551907 31.50821031 4.875 39.9375 C2.09557445 43.2508265 -0.84871928 45.15555153 -5.125 45.9375 C-10.24669809 45.9375 -12.92445107 44.92821664 -16.72265625 41.4921875 C-21.85838254 36.06623589 -24.18504496 29.94081289 -24.5 22.5 C-24.17714024 14.47061817 -21.98235814 7.52242288 -16.125 1.9375 C-10.71303955 -1.59203943 -6.11966182 -2.08068502 0 0 Z " fill="#292F32" transform="translate(300.125,244.0625)"/>
<path d="M0 0 C0.99 0.33 1.98 0.66 3 1 C-1.38748386 6.6249793 -5.91132843 10.30620592 -12 14 C-13.125 10.25 -13.125 10.25 -12 8 C-10.35 8.33 -8.7 8.66 -7 9 C-6.9175 8.38125 -6.835 7.7625 -6.75 7.125 C-6 5 -6 5 -4 3.875 C-3.34 3.58625 -2.68 3.2975 -2 3 C-1.67 2.34 -1.34 1.68 -1 1 C-0.67 0.67 -0.34 0.34 0 0 Z " fill="#404042" transform="translate(344,330)"/>
<path d="M0 0 C0.99 0.33 1.98 0.66 3 1 C1.68 1.99 0.36 2.98 -1 4 C-0.67 4.99 -0.34 5.98 0 7 C-2.475 8.485 -2.475 8.485 -5 10 C-4.74438677 12.3431213 -4.40729228 14.67843403 -4 17 C-3.34 17.33 -2.68 17.66 -2 18 C-2.66 18.99 -3.32 19.98 -4 21 C-7.33083525 17.15536569 -7.56148429 14.43749252 -7.4296875 9.48046875 C-6.73257257 5.45621441 -4.96066221 3.74918634 -2 1 C-1.34 0.67 -0.68 0.34 0 0 Z " fill="#706E70" transform="translate(245,112)"/>
<path d="M0 0 C0.66 0.33 1.32 0.66 2 1 C2 1.99 2 2.98 2 4 C2.99 4.33 3.98 4.66 5 5 C4.01 6.0209375 4.01 6.0209375 3 7.0625 C0.56114128 10.64457375 0.66707415 12.75519536 1 17 C0.34 17 -0.32 17 -1 17 C-1.33 17.99 -1.66 18.98 -2 20 C-1.91621094 19.04738281 -1.83242187 18.09476563 -1.74609375 17.11328125 C-1.64425781 15.85902344 -1.54242188 14.60476562 -1.4375 13.3125 C-1.33308594 12.07113281 -1.22867188 10.82976562 -1.12109375 9.55078125 C-1.01506159 6.44164467 -1.22771475 3.99189028 -2 1 C-1.34 0.67 -0.68 0.34 0 0 Z " fill="#48494D" transform="translate(244,129)"/>
<path d="M0 0 C2.43933105 2.43933105 2.37608173 3.31589028 2.5 6.6875 C2.44035958 11.82403111 0.86991045 14.24643256 -2.6875 17.8203125 C-3.3371875 18.40425781 -3.3371875 18.40425781 -4 19 C-4.33 18.34 -4.66 17.68 -5 17 C-4.67 16.34 -4.34 15.68 -4 15 C-4.66 15 -5.32 15 -6 15 C-6 14.34 -6 13.68 -6 13 C-4.35 13 -2.7 13 -1 13 C-1.020625 12.2575 -1.04125 11.515 -1.0625 10.75 C-1.00613896 8.27011431 -0.61356059 6.37754729 0 4 C0 2.68 0 1.36 0 0 Z " fill="#666768" transform="translate(260,117)"/>
<path d="M0 0 C0.8971875 0.5259375 0.8971875 0.5259375 1.8125 1.0625 C-2.43179722 5.09975833 -5.08572307 6.94950413 -11.1875 7.0625 C-12.5075 6.4025 -13.8275 5.7425 -15.1875 5.0625 C-10.7325 4.5675 -10.7325 4.5675 -6.1875 4.0625 C-5.8575 2.7425 -5.5275 1.4225 -5.1875 0.0625 C-2.1875 -0.9375 -2.1875 -0.9375 0 0 Z " fill="#616063" transform="translate(216.1875,282.9375)"/>
<path d="M0 0 C11.385 0.99 11.385 0.99 23 2 C23 2.33 23 2.66 23 3 C18.71 3 14.42 3 10 3 C9.67 3.99 9.34 4.98 9 6 C8.01 5.34 7.02 4.68 6 4 C6.33 3.67 6.66 3.34 7 3 C4.69 2.34 2.38 1.68 0 1 C0 0.67 0 0.34 0 0 Z " fill="#717274" transform="translate(216,328)"/>
<path d="M0 0 C2 1 2 1 3 3 C3.66 3.66 4.32 4.32 5 5 C4.67 5.66 4.34 6.32 4 7 C5.65 7.33 7.3 7.66 9 8 C9 9.32 9 10.64 9 12 C4.7835599 10.43835552 2.58130177 7.58514135 0 4 C0 2.68 0 1.36 0 0 Z " fill="#57575A" transform="translate(192,276)"/>
<path d="M0 0 C1.98 0 3.96 0 6 0 C6 0.99 6 1.98 6 3 C6.61875 3.061875 7.2375 3.12375 7.875 3.1875 C10 4 10 4 11.25 6.5625 C11.4975 7.366875 11.745 8.17125 12 9 C8.98472262 7.59422879 6.4052059 5.93873852 3.75 3.9375 C3.04359375 3.41027344 2.3371875 2.88304687 1.609375 2.33984375 C1.07828125 1.89769531 0.5471875 1.45554688 0 1 C0 0.67 0 0.34 0 0 Z " fill="#717174" transform="translate(297,210)"/>
<path d="M0 0 C0.99 0.33 1.98 0.66 3 1 C1.02 3.31 -0.96 5.62 -3 8 C-3.66 6.68 -4.32 5.36 -5 4 C-4.01 3.67 -3.02 3.34 -2 3 C-1.67 2.34 -1.34 1.68 -1 1 C-0.67 0.67 -0.34 0.34 0 0 Z " fill="#515055" transform="translate(344,330)"/>
<path d="M0 0 C2.49505962 2.49505962 2.35948376 3.67328888 2.625 7.125 C2.69976562 8.03507812 2.77453125 8.94515625 2.8515625 9.8828125 C2.92503906 10.93082031 2.92503906 10.93082031 3 12 C2.34 12 1.68 12 1 12 C0.7834375 10.6078125 0.7834375 10.6078125 0.5625 9.1875 C0.07899889 5.99274889 0.07899889 5.99274889 -1 3 C-0.67 2.01 -0.34 1.02 0 0 Z " fill="#595A5B" transform="translate(308,256)"/>
<path d="M0 0 C0.33 0.66 0.66 1.32 1 2 C1.66 2 2.32 2 3 2 C4.2890625 3.53125 4.2890625 3.53125 5.625 5.5 C6.07101562 6.1496875 6.51703125 6.799375 6.9765625 7.46875 C7.48316406 8.22671875 7.48316406 8.22671875 8 9 C7.01 9.495 7.01 9.495 6 10 C6 9.34 6 8.68 6 8 C5.38125 7.896875 4.7625 7.79375 4.125 7.6875 C2 7 2 7 0 4 C0 2.68 0 1.36 0 0 Z " fill="#626365" transform="translate(333,199)"/>
<path d="M0 0 C1.32 0.66 2.64 1.32 4 2 C3.1875 4.4375 3.1875 4.4375 2 7 C1.01 7.33 0.02 7.66 -1 8 C-0.67 5.36 -0.34 2.72 0 0 Z " fill="#5A5B5E" transform="translate(336,288)"/>
<path d="M0 0 C4.95 1.98 4.95 1.98 10 4 C7.33333333 4.66666667 4.66666667 5.33333333 2 6 C2 4.68 2 3.36 2 2 C1.34 2 0.68 2 0 2 C0 1.34 0 0.68 0 0 Z " fill="#605F63" transform="translate(296,174)"/>
<path d="M0 0 C-2.85306797 2.32472205 -5.54074837 3.7508258 -9 5 C-9.33 4.01 -9.66 3.02 -10 2 C-6.27511755 -0.66063032 -4.42132508 -1.38955931 0 0 Z " fill="#1F2024" transform="translate(253,113)"/>
<path d="M0 0 C1.65 1.65 3.3 3.3 5 5 C4.67 5.66 4.34 6.32 4 7 C3.38125 6.525625 2.7625 6.05125 2.125 5.5625 C0.09294454 3.97582559 0.09294454 3.97582559 -2 3 C-2.33 3.66 -2.66 4.32 -3 5 C-2.625 3.0625 -2.625 3.0625 -2 1 C-1.34 0.67 -0.68 0.34 0 0 Z " fill="#68696C" transform="translate(341,209)"/>
<path d="M0 0 C0.66 0.33 1.32 0.66 2 1 C-2.5 4 -2.5 4 -7 7 C-7 6.34 -7 5.68 -7 5 C-7.66 4.67 -8.32 4.34 -9 4 C-7.54618103 3.30300448 -6.08677047 2.61766134 -4.625 1.9375 C-3.40683594 1.36322266 -3.40683594 1.36322266 -2.1640625 0.77734375 C-1.44992188 0.52082031 -0.73578125 0.26429688 0 0 Z " fill="#616168" transform="translate(203,174)"/>
<path d="M0 0 C1.65 0.33 3.3 0.66 5 1 C3.515 3.475 3.515 3.475 2 6 C1.01 4.68 0.02 3.36 -1 2 C-0.67 1.34 -0.34 0.68 0 0 Z " fill="#525455" transform="translate(350,321)"/>
<path d="M0 0 C0.66 0.33 1.32 0.66 2 1 C1.67 1.66 1.34 2.32 1 3 C1.66 3.33 2.32 3.66 3 4 C2.67 4.66 2.34 5.32 2 6 C0.68 5.67 -0.64 5.34 -2 5 C-1.125 1.125 -1.125 1.125 0 0 Z " fill="#1F2226" transform="translate(127,280)"/>
<path d="M0 0 C0.66 0.33 1.32 0.66 2 1 C2.4140625 3.06640625 2.4140625 3.06640625 2.625 5.5625 C2.69976562 6.38878906 2.77453125 7.21507813 2.8515625 8.06640625 C2.92503906 9.02353516 2.92503906 9.02353516 3 10 C2.71125 9.38125 2.4225 8.7625 2.125 8.125 C1.06279958 5.86674235 1.06279958 5.86674235 -1 4 C-0.625 1.875 -0.625 1.875 0 0 Z " fill="#1B1D21" transform="translate(258,117)"/>
<path d="M0 0 C5.445 1.485 5.445 1.485 11 3 C11 3.33 11 3.66 11 4 C9.02 4.33 7.04 4.66 5 5 C4.67 4.01 4.34 3.02 4 2 C2.68 2 1.36 2 0 2 C0 1.34 0 0.68 0 0 Z " fill="#767880" transform="translate(193,321)"/>
<path d="M0 0 C0.33 0 0.66 0 1 0 C1.3125 2.3125 1.3125 2.3125 1 5 C-1.5 6.8125 -1.5 6.8125 -4 8 C-2.87548273 5.0280615 -1.77706209 2.66559313 0 0 Z " fill="#616163" transform="translate(155,213)"/>
<path d="M0 0 C1 3 1 3 -0.4375 6.1875 C-1.2109375 7.5796875 -1.2109375 7.5796875 -2 9 C-2.93423645 5.98968256 -3.04449911 5.13349732 -2 2 C-1.34 2 -0.68 2 0 2 C0 1.34 0 0.68 0 0 Z " fill="#68686A" transform="translate(222,272)"/>
<path d="M0 0 C0.33 0 0.66 0 1 0 C1.33 2.31 1.66 4.62 2 7 C1.34 7 0.68 7 0 7 C0 7.66 0 8.32 0 9 C0.66 9.33 1.32 9.66 2 10 C1.01 10 0.02 10 -1 10 C-0.67 6.7 -0.34 3.4 0 0 Z " fill="#605F67" transform="translate(126,246)"/>
</svg>
